<svg xmlns="http://www.w3.org/2000/svg" width="88.001" height="87.998">
    <path fill="#ffc2af" d="M44.001 87.998a43.72 43.72 0 0 1-17.126-3.457 43.864 43.864 0 0 1-13.987-9.429 43.854 43.854 0 0 1-9.43-13.985A43.706 43.706 0 0 1 0 44.001a43.713 43.713 0 0 1 3.458-17.128 43.853 43.853 0 0 1 9.43-13.986 43.854 43.854 0 0 1 13.987-9.429A43.72 43.72 0 0 1 44.001.001a43.72 43.72 0 0 1 17.126 3.457 43.847 43.847 0 0 1 13.986 9.429 43.855 43.855 0 0 1 9.43 13.986 43.713 43.713 0 0 1 3.458 17.128 43.706 43.706 0 0 1-3.458 17.126 43.855 43.855 0 0 1-9.43 13.985 43.846 43.846 0 0 1-13.986 9.429 43.72 43.72 0 0 1-17.126 3.457Zm-16.5-49a5.505 5.505 0 0 0-5.5 5.5 5.505 5.505 0 0 0 5.5 5.5h11.5v12a5 5 0 0 0 5 5 5 5 0 0 0 5-5v-12h11.5a5.505 5.505 0 0 0 5.5-5.5 5.505 5.505 0 0 0-5.5-5.5h-11.5v-11a5 5 0 0 0-5-5 5 5 0 0 0-5 5v11Z" />
</svg>